# xmcd
# Track frame offsets:
# 150
# 10996
# 20126
# 31727
# 41884
# 58786
# 69505
# 84083
# 97993
# 111771
# 130104
# 139168
# 151950
# 166929
# 172848
# 194572
# 208238
# 218596
# 233023
# 244914
#
# Disc length: 3423 seconds
# Revision: 0
# Processed by: cddbd v1.5.2PL0 Copyright (c) Steve Scherf et al.
# Submitted via: VisiTrax 2.11.1.266 - For more info visit www.synapsa.com
#
DISCID=0d0d5d14
DTITLE=The Desert Sons - Songs Along The Trail
DYEAR=2009
DGENRE=Cowboy
TTITLE0=Deserrt Sons - Song Of The Trail
TTITLE1=Deserrt Sons - Song Of The Rover
TTITLE2=Deserrt Sons - Dusty Winds
TTITLE3=Deserrt Sons - Rocky Mountain Express
TTITLE4=Deserrt Sons - The Wagon Tongue
TTITLE5=Deserrt Sons - Nightherd Lullaby
TTITLE6=Deserrt Sons - Song Of Lupita
TTITLE7=Deserrt Sons - Blue Colorado Skies
TTITLE8=Deserrt Sons - Cowboy's Letter From Home
TTITLE9=Deserrt Sons - Wyoming On My Mind
TTITLE10=Deserrt Sons - Big Ball's In Cowtown
TTITLE11=Deserrt Sons - Boots and Saddles
TTITLE12=Deserrt Sons - Pinalena
TTITLE13=Deserrt Sons - Buffalo Gals
TTITLE14=Deserrt Sons - El Paso
TTITLE15=Deserrt Sons - Arizona Cowboy
TTITLE16=Deserrt Sons - Lonely Old Bunkhouse
TTITLE17=Deserrt Sons - Sundown Song
TTITLE18=Deserrt Sons - Will There Be Sagebrush In Heaven
TTITLE19=Deserrt Sons - Arizona Home
EXTD=
EXTT0=
EXTT1=
EXTT2=
EXTT3=
EXTT4=
EXTT5=
EXTT6=
EXTT7=
EXTT8=
EXTT9=
EXTT10=
EXTT11=
EXTT12=
EXTT13=
EXTT14=
EXTT15=
EXTT16=
EXTT17=
EXTT18=
EXTT19=
PLAYORDER=
